grf_filtered
version=1
nRows=39
nColumns=28
inDegrees=no
endheader
time	ground_force_r_vx	ground_force_r_vy	ground_force_r_vz	ground_force_r_px	ground_force_r_py	ground_force_r_pz	ground_torque_r_x	ground_torque_r_y	ground_torque_r_z	ground_force_l_vx	ground_force_l_vy	ground_force_l_vz	ground_force_l_px	ground_force_l_py	ground_force_l_pz	ground_torque_l_x	ground_torque_l_y	ground_torque_l_z	pelvis_force_vx	pelvis_force_vy	pelvis_force_vz	pelvis_force_px	pelvis_force_py	pelvis_force_pz	pelvis_torque_x	pelvis_torque_y	pelvis_torque_z
2.9616666666666664	15.737088746835443	303.709365	16.763266978902955	0.2152278168354429	0.0	0.0867507869029529	-40.210263	0.783209	-5.843951	14.663860746835443	268.263257	-24.674586021097046	0.22069228783544292	0.0	-0.25379374909704744	34.656175	3.98732	1.630728	0	0.0	0	0	0	0	0	0	0
2.9633333333333334	16.95571974683544	303.10035	16.447329978902953	0.214793905835443	0.0	0.08407408390295323	-40.940933	0.653563	-5.476846	14.667539746835443	268.873355	-24.368927021097047	0.22202842783544297	0.0	-0.25342530709704736	34.835176	4.355591	1.691545	0	0.0	0	0	0	0	0	0	0
2.9650000000000003	17.88563974683544	301.272529	17.661985978902955	0.21439077783544291	0.0	0.0832427209029527	-40.939763	0.531499	-5.477034	14.046480746835444	267.653698	-25.278628021097045	0.22258776083544285	0.0	-0.2507752770970466	35.383133	4.4837	1.630667	0	0.0	0	0	0	0	0	0	0
2.9666666666666663	16.964688746835442	304.933277	17.665186978902955	0.215182413835443	0.0	0.08487012890295276	-40.942787	0.776325	-5.934421	14.051327746835444	270.705201	-24.970958021097047	0.22195724183544296	0.0	-0.25159069809704704	35.56764	4.363569	1.508784	0	0.0	0	0	0	0	0	0	0
2.9683333333333333	17.56259074683544	307.374173	16.740131978902955	0.21591769483544299	0.0	0.08236579790295284	-42.043025	1.009222	-5.47466	13.756331746835443	270.704586	-24.052100021097047	0.22239661083544293	0.0	-0.25295925309704703	35.200038	4.481668	1.630581	0	0.0	0	0	0	0	0	0	0
2.97	17.866840746835443	307.984974	16.736275978902952	0.21553483783544292	0.0	0.08501964690295338	-41.310014	0.894739	-5.84214	14.666488746835443	273.756418	-24.670062021097046	0.22177959883544296	0.0	-0.2523928100970476	35.750734	4.365602	1.50887	0	0.0	0	0	0	0	0	0	0
2.971666666666667	18.46747574683544	308.594819	15.814009978902956	0.2155062448354429	0.0	0.0835145989029531	-41.858758	0.888914	-5.475118	13.754696746835444	274.366946	-24.354241021097046	0.21908560683544298	0.0	-0.25265789009704775	35.758747	3.633426	1.753617	0	0.0	0	0	0	0	0	0	0
2.973333333333333	19.078902746835443	309.81689	16.111458978902952	0.21507271083544288	0.0	0.08168631390295289	-42.590385	0.760244	-5.748881	14.063240746835444	274.36655	-24.052471021097045	0.21953434883544287	0.0	-0.25199896309704695	35.940486	3.757521	1.753602	0	0.0	0	0	0	0	0	0	0
2.975	18.473519746835443	310.427277	16.726704978902955	0.21624871483544295	0.0	0.0813495279029528	-42.776856	1.124543	-5.656495	14.667364746835444	275.587472	-24.668554021097044	0.22121703583544283	0.0	-0.25458601409704773	35.385755	4.239726	1.813975	0	0.0	0	0	0	0	0	0	0
2.976666666666667	17.872165746835442	312.259302	17.950414978902955	0.21623479883544294	0.0	0.08214656690295286	-42.777403	1.1251	-6.022705	14.658078746835443	277.419285	-25.582517021097047	0.22025863383544286	0.0	-0.253434824097047	35.937835	4.001546	1.631329	0	0.0	0	0	0	0	0	0	0
2.978333333333333	17.259106746835442	314.091357	17.953475978902954	0.21739842683544297	0.0	0.08410240290295334	-42.414583	1.494666	-5.93113	13.752185746835444	276.198253	-24.657890021097046	0.21986805383544294	0.0	-0.254855699097047	35.389848	3.873487	1.753243	0	0.0	0	0	0	0	0	0	0
2.98	19.069788746835442	315.9223	16.102160978902955	0.2158024118354429	0.0	0.08434029790295305	-42.592042	1.003676	-5.290743	14.055123746835443	278.639768	-24.964423021097048	0.2193268548354429	0.0	-0.25400076209704636	35.940486	3.757521	1.753602	0	0.0	0	0	0	0	0	0	0
2.981666666666667	18.773404746835443	315.923256	17.020570978902953	0.2169536208354429	0.0	0.08316060490295296	-42.962976	1.367613	-6.113611	14.049516746835444	281.081679	-25.572726021097047	0.2213752878354429	0.0	-0.2557918580970462	35.750588	4.365853	1.814045	0	0.0	0	0	0	0	0	0	0
2.983333333333333	17.859934746835442	316.532722	17.333581978902952	0.21580882383544298	0.0	0.08458835990295288	-42.592589	1.004234	-5.656953	14.682956746835444	279.85892	-23.444408021097047	0.22232205183544296	0.0	-0.2539613120970472	36.114096	4.613993	1.75298	0	0.0	0	0	0	0	0	0	0
2.985	17.839840746835442	320.192477	15.802197978902953	0.21651563383544292	0.0	0.08385027190295258	-43.327453	1.241479	-5.747048	13.751134746835444	281.081316	-24.959025021097045	0.22139311983544296	0.0	-0.2544959570970473	36.116806	4.369867	1.753182	0	0.0	0	0	0	0	0	0	0
2.986666666666667	17.839840746835442	320.192477	15.802197978902953	0.21574756883544288	0.0	0.08328564890295365	-43.5078	0.995176	-5.472495	14.059386746835443	280.470569	-24.657758021097045	0.22143038283544292	0.0	-0.2535663880970471	36.2999	4.3719	1.753268	0	0.0	0	0	0	0	0	0	0
2.9883333333333337	18.76319074683544	320.805588	16.707972978902955	0.21610250283544297	0.0	0.08239029090295258	-43.875574	1.114148	-5.746423	14.660706746835443	282.912447	-25.577993021097047	0.21958612483544293	0.0	-0.25271423409704674	36.854514	3.889897	1.937036	0	0.0	0	0	0	0	0	0	0
2.9899999999999998	18.15799974683544	323.247494	17.625591978902953	0.21607832083544298	0.0	0.08284949390295271	-44.05867	1.112392	-5.746153	13.744359746835443	281.081822	-25.569339021097047	0.22095168783544294	0.0	-0.2551356590970464	35.935096	4.245722	1.692162	0	0.0	0	0	0	0	0	0	0
2.9916666666666667	17.84315074683544	323.855986	16.712103978902952	0.21570915483544284	0.0	0.08425033690295347	-43.690897	0.99342	-5.472224	13.744943746835443	282.302525	-25.568334021097048	0.22090860883544294	0.0	-0.25374376109704677	36.484378	4.251819	1.69242	0	0.0	0	0	0	0	0	0	0
2.9933333333333336	17.85888274683544	325.079501	18.541213978902952	0.21831093583544292	0.0	0.08302470290295272	-44.249199	1.843442	-6.019414	13.740388746835443	279.861373	-25.875501021097048	0.22018093283544293	0.0	-0.2512924910970469	36.853159	4.011959	1.936934	0	0.0	0	0	0	0	0	0	0
2.9949999999999997	18.757723746835442	324.467689	16.702395978902953	0.21679113483544288	0.0	0.08110739990295279	-44.793262	1.349358	-5.653142	13.742140746835444	283.52348	-25.872485021097045	0.22174851983544297	0.0	-0.2504325680970467	37.580087	4.50839	1.997909	0	0.0	0	0	0	0	0	0	0
2.9966666666666666	17.84262474683544	328.129375	17.315919978902954	0.21602772483544286	0.0	0.08432625790295312	-44.241904	1.110775	-5.837435	14.650837746835442	283.523557	-26.492961021097045	0.22085576283544295	0.0	-0.2523534830970471	37.033485	4.258218	2.058888	0	0.0	0	0	0	0	0	0	0
2.9983333333333335	19.67579974683544	330.574421	17.904966978902955	0.21670391483544293	0.0	0.08309511490295307	-44.976495	1.347742	-5.744424	14.034333746835443	284.745051	-27.095495021097047	0.22079179483544298	0.0	-0.2535508700970466	36.85042	4.256135	1.997767	0	0.0	0	0	0	0	0	0	0
3.0000000000000004	17.21968874683544	328.736947	16.100197978902955	0.21637782583544285	0.0	0.08235694190295373	-44.974915	1.225259	-5.469954	12.817676746835444	285.966074	-26.775784021097046	0.22074214483544297	0.0	-0.25410798209704755	36.85042	4.256135	1.997767	0	0.0	0	0	0	0	0	0	0
3.0016666666666665	17.83787674683544	329.349607	17.008899978902953	0.216730653835443	0.0	0.08204254590295257	-45.159319	1.345707	-5.561049	12.813997746835444	285.355976	-27.081443021097048	0.2216221548354429	0.0	-0.25447955909704767	36.664617	4.498228	1.997479	0	0.0	0	0	0	0	0	0	0
3.0033333333333334	18.44930374683544	330.571678	17.306348978902953	0.21598767783544293	0.0	0.08421591090295344	-44.607824	1.106985	-5.653788	12.807223746835444	285.356481	-27.691757021097047	0.22206424983544293	0.0	-0.25319419109704633	37.029479	4.624306	1.936515	0	0.0	0	0	0	0	0	0	0
3.0050000000000003	17.528160746835443	332.400906	17.007177978902956	0.21778911883544294	0.0	0.08219114290295337	-45.52875	1.708111	-5.376839	13.417828746835443	285.966546	-27.698029021097046	0.22202317483544287	0.0	-0.25347166309704683	37.029538	4.624205	1.814444	0	0.0	0	0	0	0	0	0	0
3.0066666666666664	16.623659746835443	334.8433	18.538045978902954	0.21667297783544293	0.0	0.08373438690295387	-45.343099	1.344649	-6.018541	13.426822746835443	283.524382	-26.784569021097045	0.22171620983544293	0.0	-0.25365138909704665	36.664617	4.498228	1.997479	0	0.0	0	0	0	0	0	0	0
3.0083333333333333	17.53127874683544	334.232895	17.614711978902953	0.2159303148354429	0.0	0.08240661590295328	-45.705586	1.095614	-5.102849	14.025047746835444	286.576864	-28.009457021097045	0.22154926683544296	0.0	-0.2543787740970469	36.84774	4.50021	1.93653	0	0.0	0	0	0	0	0	0	0
3.0100000000000002	16.93174674683544	334.84422	18.840280978902953	0.21703990583544297	0.0	0.08427493490295301	-45.160899	1.46819	-5.835518	13.407667746835443	285.967305	-28.613499021097045	0.22160353283544298	0.0	-0.2528164670970465	37.213928	4.504275	1.936702	0	0.0	0	0	0	0	0	0	0
3.0116666666666663	16.92114774683544	336.063513	17.922937978902954	0.21663009583544302	0.0	0.08150833590295292	-46.257353	1.334615	-5.193215	13.412222746835443	288.408457	-28.306332021097045	0.22229671783544291	0.0	-0.25583783109704683	36.661878	4.742404	2.058312	0	0.0	0	0	0	0	0	0	0
3.013333333333333	17.242040746835443	337.287479	19.749120978902955	0.2162617728354429	0.0	0.08307954790295291	-45.890946	1.217038	-5.834811	12.486006746835443	287.188943	-29.212646021097047	0.22067605483544295	0.0	-0.25526745109704674	36.667326	4.254103	1.997681	0	0.0	0	0	0	0	0	0	0
3.015	15.706545746835443	337.894166	18.847337978902953	0.21624403083544297	0.0	0.08062439590295334	-46.80643	1.208259	-5.833458	13.394994746835444	287.799371	-29.832619021097045	0.2197936618354429	0.0	-0.2548863550970468	36.853276	4.011758	1.692794	0	0.0	0	0	0	0	0	0	0
3.016666666666667	16.002211746835442	340.33508	18.230370978902954	0.21621679983544295	0.0	0.08162560690295262	-46.805747	1.207562	-5.375695	12.486298746835443	287.799294	-29.212143021097045	0.21981074883544294	0.0	-0.254256981097047	37.036341	4.013841	1.753915	0	0.0	0	0	0	0	0	0	0
3.018333333333333	15.704916746835444	340.946386	19.147851978902953	0.21621866083544283	0.0	0.08240080590295307	-46.622787	1.209457	-5.467519	11.879079746835444	287.188977	-28.900715021097046	0.2223900328354429	0.0	-0.25465220109704667	36.845089	4.744235	1.814257	0	0.0	0	0	0	0	0	0	0
3.02	14.777921746835444	342.774676	18.238357978902954	0.2162245268354429	0.0	0.08474375990295346	-46.072949	1.214167	-5.10212	12.486882746835443	289.019997	-29.211138021097046	0.22143478183544296	0.0	-0.25545401009704705	36.84774	4.50021	1.93653	0	0.0	0	0	0	0	0	0	0
3.021666666666667	15.400858746835443	342.167105	19.454079978902953	0.21583207683544292	0.0	0.08074930090295318	-47.353731	1.080091	-5.283519	12.778490746835443	289.020866	-30.435153021097047	0.2210092228354429	0.0	-0.2554358750970467	36.849153	4.378047	1.814561	0	0.0	0	0	0	0	0	0	0
3.023333333333333	15.382585746835444	344.60616	17.924554978902954	0.21582118583544285	0.0	0.08280844090295325	-46.987127	1.083184	-5.009402	12.476720746835444	289.020756	-30.126609021097046	0.22228663483544298	0.0	-0.2548197970970474	37.028183	4.746268	1.814343	0	0.0	0	0	0	0	0	0	0
3.025	15.093682746835443	341.555835	19.152774978902954	0.21620801183544291	0.0	0.08157324190295334	-46.988707	1.205667	-5.283872	12.182893746835443	291.461545	-29.205740021097046	0.22047810883544294	0.0	-0.2558868600970463	37.033544	4.258117	1.936818	0	0.0	0	0	0	0	0	0	0
